# xmcd
#
# Track frame offsets:
#	150
#	14043
#	29452
#	46767
#	62834
#	78390
#	102647
#	116219
#	134047
#	152645
#	171281
#	183481
#	201832
#	217869
#
# Disc length: 3091 seconds
#
# Revision: 1
# Processed by: cddbd v1.5.2PL0 Copyright (c) Steve Scherf et al.
# Submitted via: audiograbber 1.83.01
#
DISCID=cd0c110e
DTITLE=Bernd Stelter - Wer Lieder singt, braucht keinen Therapeuten
DYEAR=2015
DGENRE=Comedy
TTITLE0=Das Gute
TTITLE1=Liebe geht bekanntlich durch den Magen
TTITLE2=Ich brech die Herzen der coolsten Ischen
TTITLE3=Neugierig auf Dich
TTITLE4=Ich will am Meer sein
TTITLE5=Schnall mich fest, mein lieber Mann
TTITLE6=Ich schalt den Fernseher ein
TTITLE7=Ikarus
TTITLE8=Der Clown
TTITLE9=Der langsamste Jogger
TTITLE10=Gedanken lesen
TTITLE11=Ein Leben lang
TTITLE12=Es kommt der Tag
TTITLE13=Gibt´s den Weihnachtsmann
EXTD=
EXTT0=
EXTT1=
EXTT2=
EXTT3=
EXTT4=
EXTT5=
EXTT6=
EXTT7=
EXTT8=
EXTT9=
EXTT10=
EXTT11=
EXTT12=
EXTT13=
PLAYORDER=
